<svg id="Layer_2" data-name="Layer 2" xmlns="http://www.w3.org/2000/svg" viewBox="0 0 16 16"><title>safari-pinned-tab</title><path d="M.85,9V8.93A8.4,8.4,0,0,1,2.22,4,6.43,6.43,0,0,1,3.36,2.67a2.52,2.52,0,0,1,.69-.46,1.29,1.29,0,0,1,1.16.1c.46.25.54.38,1.17,1.08a33,33,0,0,1,2,3.16A19,19,0,0,1,9.87,5.18a5.34,5.34,0,0,1,1.62-1l.06,0a3.53,3.53,0,0,1,1.16-.29A1.68,1.68,0,0,1,13.86,4a2.62,2.62,0,0,1,.87,1,3.13,3.13,0,0,1,.39,1.84,5.46,5.46,0,0,1-.41,1.75c-.15.37-.31.74-.47,1.11l-.09.2-.12.25.08-.15.21-.37.28-.5c.1-.18.19-.36.29-.53a9,9,0,0,0,.9-2.44,3.6,3.6,0,0,0-.14-2,2,2,0,0,0-.52-.77,5.21,5.21,0,0,0-.52-.41c-.27-.2-.55-.39-.83-.58L13,1.81l-.44-.21a.93.93,0,0,0-.78,0,1.56,1.56,0,0,0-.38.25,3.94,3.94,0,0,0-.69.78l-1,1.46L9,4.89,7.33,2.1A16.3,16.3,0,0,0,5.88.44a1.06,1.06,0,0,0-.79,0A6,6,0,0,0,2.31,2.34a12,12,0,0,0-.88,1A6.39,6.39,0,0,0,.6,4.59,5.83,5.83,0,0,0,.17,6a3.33,3.33,0,0,0,.14,1.5"/><path d="M14.54,6.84c-.21-.83-.58-1.87-1-2a1.94,1.94,0,0,0-.91-.09A5.81,5.81,0,0,0,9.68,6.26C7.85,7.76,8.35,7.34,8.35,7.34s-2.25-4.24-4-3.7A4.25,4.25,0,0,0,1.86,6.18,7.24,7.24,0,0,0,1.44,9.3l.05.29c1.26,1,6.62,5.24,6.73,6.07,0,0,4.82-4.24,5.49-5.37A5.47,5.47,0,0,0,14.54,6.84ZM5.81,8.34v0a.9.9,0,0,0-.26-.5.92.92,0,0,0-.29-.23,1,1,0,0,0-.48-.07c-.16,0-.31.06-.48.07a2.16,2.16,0,0,1,.07-.51c.08-.24.31-.56.6-.44l0,0A.65.65,0,0,1,5.28,7,3.24,3.24,0,0,1,5.81,8.34Zm5.58,2a5.45,5.45,0,0,1-.72,1s-.41.46-.29.25a10.53,10.53,0,0,0,.38-1.49,2.19,2.19,0,0,0,0-.92,3,3,0,0,1-.2-.88c0-.31.3-.39.56-.35a1,1,0,0,1,.8.94A3.83,3.83,0,0,1,11.39,10.33Z"/></svg>